<svg width="98" height="98" viewBox="0 0 98 98" fill="none" xmlns="http://www.w3.org/2000/svg">
<path d="M69.4024 25.4501C71.1142 24.9914 72.6807 26.5578 72.222 28.2697L58.8056 78.3403C58.3469 80.0521 56.2072 80.6254 54.954 79.3723L18.2998 42.7181C17.0466 41.4649 17.62 39.3252 19.3318 38.8665L69.4024 25.4501Z" fill="#10242F"/>
<path d="M56.8343 51.7903L55.3025 53.867L56.7702 55.9894C56.8688 56.1463 56.9031 56.3351 56.8659 56.5166C56.8287 56.6981 56.723 56.8582 56.5707 56.9637C56.4184 57.0691 56.2313 57.1118 56.0484 57.0828C55.8654 57.0538 55.7007 56.9553 55.5886 56.8078L54.3997 55.0908L53.1608 56.7708C53.1066 56.8515 53.0366 56.9203 52.9551 56.9732C52.8735 57.0261 52.7821 57.0619 52.6864 57.0785C52.5906 57.095 52.4925 57.0921 52.3979 57.0697C52.3034 57.0473 52.2143 57.006 52.1362 56.9482C52.058 56.8905 51.9923 56.8175 51.9431 56.7337C51.894 56.6499 51.8623 56.557 51.85 56.4606C51.8377 56.3642 51.845 56.2663 51.8716 56.1728C51.8982 56.0794 51.9434 55.9922 52.0046 55.9167L53.5347 53.84L52.0669 51.7175C51.9683 51.5607 51.9341 51.3719 51.9712 51.1904C52.0084 51.0089 52.1141 50.8488 52.2664 50.7433C52.4187 50.6378 52.6058 50.5952 52.7888 50.6242C52.9717 50.6532 53.1364 50.7517 53.2486 50.8991L54.4374 52.6162L55.6764 50.9362C55.793 50.7923 55.9606 50.6988 56.1444 50.6754C56.3281 50.652 56.5138 50.7003 56.6628 50.8104C56.8118 50.9205 56.9126 51.0838 56.9442 51.2663C56.9758 51.4488 56.9358 51.6365 56.8325 51.7903L56.8343 51.7903ZM48.6398 52.9837C48.2817 52.874 47.9111 52.7613 47.7054 52.6241C47.5942 52.5487 47.5962 52.5325 47.6082 52.4518C47.6106 52.3864 47.6286 52.3225 47.6608 52.2656C47.6929 52.2086 47.7383 52.1603 47.7931 52.1245C48.211 51.8503 49.1748 51.99 49.5769 52.1014C49.7608 52.1534 49.9577 52.1303 50.1245 52.0372C50.2913 51.944 50.4143 51.7884 50.4664 51.6045C50.5184 51.4207 50.4953 51.2237 50.4022 51.0569C50.309 50.8901 50.1534 50.7672 49.9695 50.7151C49.7797 50.6627 48.0884 50.2169 47.0129 50.9182C46.7854 51.0659 46.5932 51.2617 46.4498 51.4919C46.3064 51.722 46.2154 51.9809 46.1831 52.2501C45.9815 53.6753 47.3824 54.1041 48.2195 54.3597C49.2991 54.69 49.3924 54.8201 49.3582 55.0597C49.327 55.276 49.2403 55.3574 49.1604 55.4101C48.7426 55.679 47.7942 55.5296 47.402 55.4148C47.2186 55.3606 47.0211 55.3815 46.8531 55.4729C46.6851 55.5642 46.5602 55.7186 46.506 55.9021C46.4518 56.0855 46.4727 56.283 46.5641 56.451C46.6554 56.619 46.8098 56.7439 46.9933 56.7981C47.4373 56.9224 47.8954 56.9898 48.3564 56.9988C48.8797 57.0068 49.4637 56.9257 49.9352 56.6217C50.1678 56.4722 50.3645 56.273 50.511 56.0384C50.6575 55.8038 50.7502 55.5396 50.7824 55.2649C51.0031 53.7114 49.5252 53.2545 48.6398 52.9837ZM44.7569 50.4683L41.1602 50.4134C40.9694 50.4105 40.7853 50.4835 40.6483 50.6163C40.5113 50.7492 40.4328 50.931 40.4298 51.1218C40.4269 51.3125 40.4999 51.4967 40.6328 51.6336C40.7656 51.7706 40.9474 51.8492 41.1382 51.8521L42.2172 51.8685L42.1514 56.1846C42.1484 56.3754 42.2214 56.5595 42.3543 56.6964C42.4871 56.8334 42.6689 56.912 42.8597 56.9149C43.0505 56.9178 43.2346 56.8448 43.3716 56.712C43.5085 56.5791 43.5871 56.3973 43.59 56.2065L43.6559 51.8905L44.7349 51.907C44.9257 51.9099 45.1098 51.8369 45.2468 51.704C45.3837 51.5712 45.4623 51.3894 45.4652 51.1986C45.4681 51.0078 45.3951 50.8237 45.2623 50.6867C45.1295 50.5498 44.9476 50.4712 44.7569 50.4683ZM57.0625 45.6195L57.0296 47.7775C57.0267 47.9683 56.9481 48.1501 56.8111 48.283C56.6741 48.4158 56.49 48.4888 56.2992 48.4859C56.1085 48.483 55.9267 48.4044 55.7938 48.2674C55.661 48.1305 55.588 47.9463 55.5909 47.7556L55.6128 46.3169L51.2968 46.251C51.106 46.2481 50.9242 46.1695 50.7914 46.0326C50.6585 45.8956 50.5855 45.7115 50.5884 45.5207L50.6543 41.2047L42.7415 41.0839L42.6427 47.558C42.6398 47.7488 42.5613 47.9306 42.4243 48.0634C42.2873 48.1963 42.1032 48.2693 41.9124 48.2663C41.7216 48.2634 41.5398 48.1849 41.407 48.0479C41.2742 47.9109 41.2012 47.7268 41.2041 47.536L41.3029 41.062C41.3087 40.6804 41.4658 40.3168 41.7398 40.0511C42.0137 39.7854 42.3819 39.6394 42.7635 39.6452L51.3956 39.777C51.4901 39.7783 51.5834 39.7983 51.6701 39.8357C51.7569 39.8732 51.8355 39.9273 51.9013 39.9951L56.8598 45.1074C56.9256 45.1752 56.9774 45.2554 57.0121 45.3433C57.0469 45.4311 57.064 45.525 57.0625 45.6195ZM54.6178 44.8627L52.0774 42.2436L52.0381 44.8233L54.6178 44.8627Z" fill="#2B6280"/>
</svg>
